<svg id="Layer_1" data-name="Layer 1" xmlns="http://www.w3.org/2000/svg" viewBox="0 0 434 434"><defs><style>.cls-1{fill:#151715;}</style></defs><path class="cls-1" d="M338,457.34c2.09-.81,2.31-1.49,1.46-3.46-3.38-7.83-6.61-15.72-9.76-23.65-.67-1.69-1.17-1.88-2.91-1.17A179.18,179.18,0,0,1,279,441.19c-6.56.72-6.55.75-6.55-5.79,0-6.06.1-12.12-.06-18.18-.05-2,.54-2.78,2.55-3a152.07,152.07,0,0,0,42.68-10.75,159.13,159.13,0,0,0,44.95-27.65A155,155,0,0,0,388,347.93c.9-1.28,1.7-1.57,3.21-.86,7.69,3.64,15.43,7.16,23.32,10.81a158.4,158.4,0,0,1-13.1,17.57,160.3,160.3,0,0,1-19.81,20.13c-1.52,1.27-1.37,2.06-.18,3.47,5.57,6.57,11,13.22,16.47,19.89.9,1.1,1.34,1.63,2.74.4a222,222,0,0,0,50.75-63.86A216,216,0,0,0,472.38,295c.08-.44,0-.95.62-1.06v-5L450.82,285c-1.2-.21-2.41-.4-3.62-.57-4.06-.58-4.08-.58-4.71,3.37A181.66,181.66,0,0,1,429.44,331c-.81,1.88-1.51,2.52-3.63,1.49-6.81-3.3-13.71-6.41-20.62-9.5-1.5-.67-1.84-1.23-1.11-2.83a151.14,151.14,0,0,0,12.65-45.4,156.22,156.22,0,0,0-10.41-77.92c-.88-2.17-.8-3.22,1.34-4.56,7-4.39,13.92-9,20.89-13.63a180,180,0,0,1,13.84,44.63c.34,2,1.41,1.84,2.76,1.63L473,220.57v-1.68c-1.33-5.74-2.53-11.5-4-17.2a213.23,213.23,0,0,0-42.18-82.44,239.93,239.93,0,0,0-25.52-26.38c-1-.9-1.65-1.07-2.68,0-6.22,6.63-12.47,13.25-18.83,19.75-1.23,1.26-.19,1.47.43,2a192,192,0,0,1,29.41,31.83c.44.61.85,1.23,1.27,1.85,1.33,2,4.12,4.11,3.61,5.88s-3.69,2.83-5.72,4.16c-4.94,3.24-9.93,6.38-14.8,9.71-1.49,1-2.11,1-3.2-.58a159.27,159.27,0,0,0-25.47-29.35c-23.87-21.53-51.83-34.76-83.67-40-3.15-.52-6.34-.91-9.53-1.15-1.44-.11-1.94-.5-1.93-2,.06-7.93.05-15.86,0-23.79,0-1.32.31-1.71,1.78-1.58A188.61,188.61,0,0,1,328.6,83.32c2,.85,3,.67,3.94-1.51,3.39-7.73,7-15.36,10.59-23,.69-1.46.67-2.11-1-2.82a237,237,0,0,0-51.82-14.61c-16.22-2.71-32.55-2.7-48.82-2C218.2,40.46,195.79,46,174.14,54.47c-1.54.6-1.62,1.22-1,2.67q5.28,12,10.28,24c.67,1.61,1.28,1.77,2.83,1.14a189.09,189.09,0,0,1,44.47-11.62c3.26-.47,6.56-.66,9.83-1,1.13-.14,1.55.2,1.55,1.3,0,8.21,0,16.41,0,24.62,0,1.47-.92,1.29-1.86,1.39a166.93,166.93,0,0,0-41,9.51,160.76,160.76,0,0,0-54.35,33.88,157.22,157.22,0,0,0-22.74,26.55c-.8,1.19-1.37,1.15-2.42.51-6.85-4.23-13.7-8.45-20.6-12.59-1.24-.74-1.18-1.35-.49-2.35,8.84-12.75,18.68-24.64,30.52-34.8,1.64-1.4,2.31-2.32.49-4.28C124,107.27,118.45,101,113.05,94.67c-1.52-1.77-2.41-1.4-3.85-.08a224.71,224.71,0,0,0-41.13,49.27,211.9,211.9,0,0,0-28,73.43c-.16.92-.43,1.81-.65,2.72.08.56.19,1,.94,1.11,9.32,1.73,18.64,3.47,27.94,5.31,1.62.32,1.18-.74,1.31-1.42a192.92,192.92,0,0,1,8.48-31.93c1.65-4.42,3.6-8.73,5.29-13.13.58-1.5,1.19-1.52,2.43-.75q10.24,6.36,20.58,12.62c1.06.64,1.32,1.1.77,2.38a156,156,0,0,0-11.11,82.46,158,158,0,0,0,12.52,43.95c.52,1.16.47,1.69-.74,2.31q-10.72,5.52-21.36,11.2c-1.34.71-1.81.49-2.43-.86a185.1,185.1,0,0,1-13.9-44.12c-.86-4.75-.76-4.89-5.35-4.15-8.61,1.39-17.21,2.94-25.81,4.42V290c1.22,5.61,2.33,11.24,3.68,16.81a213.53,213.53,0,0,0,25,60.38,225.68,225.68,0,0,0,41,49.43c1.51,1.39,3.06,3.58,4.73,3.72s2.81-2.62,4.15-4.1c4.82-5.35,9.45-10.89,14.24-16.28,1.28-1.43,1.5-2.23-.18-3.68a179.47,179.47,0,0,1-32.47-36.43,6.8,6.8,0,0,1-.41-.76c7.53-4,15.09-7.88,22.58-11.91,1.5-.82,2.23-.48,3.13.81A151.4,151.4,0,0,0,152,377.69,160.19,160.19,0,0,0,222.71,412a131.23,131.23,0,0,0,19.82,2.83c1.28.06,1.82.48,1.81,1.83-.05,8-.08,16.05,0,24.07,0,1.9-1.08,1.56-2.19,1.46a188.3,188.3,0,0,1-56.27-12.93c-1.48-.58-2.08-.56-2.7,1-3.4,8.32-6.82,16.63-10.39,24.89-.71,1.65.39,1.74,1.25,2.07a243.41,243.41,0,0,0,26.4,8.58A218.06,218.06,0,0,0,243,472.42c.46,0,1-.05,1.09.58h4.53c1-1.17,2.24-.35,3.36-.47,2.85.13,5.75-.71,8.54.47h4c.38-.81.75-.85,1.13,0h1.7c2.41-1.23,5.08-.73,7.59-.93A226.4,226.4,0,0,0,338,457.34Zm2.22-97.13c0,1.15,0,2.15-1.1,3a140.7,140.7,0,0,1-29.53,16.94v-2.9q0-46.59-.06-93.18c0-2.43.53-3.12,3.06-3.06,8.31.18,16.62.13,24.93,0,2,0,2.76.32,2.75,2.55C340.2,309.1,340.23,334.66,340.24,360.21Zm49.87-77a135.3,135.3,0,0,1-22.86,51.38c-.54.74-1.15,1.44-2.28,2.84v-6.93c0-15.55,0-31.11,0-46.66,0-2.06.32-2.92,2.72-2.86,6.88.18,13.77.13,20.65,0C390.17,281,390.49,281.45,390.11,283.2ZM149.5,339.05a2.9,2.9,0,0,1-.28.76,132.55,132.55,0,0,1-23.76-45c-1.14-3.81-2-7.68-3.08-11.52-.49-1.78,0-2.37,2-2.34,7.65.11,15.3.06,22.94,0,1.33,0,2.25-.09,2.25,1.8C149.49,301.56,149.52,320.31,149.5,339.05Zm56.66,41a12,12,0,0,1-.14,1.27C197.9,378.26,190.6,374,183.1,370c-6-3.15-7.74-7.22-7.61-13.86.46-24,.22-48.1.12-72.15,0-2.47.6-3.11,3.1-3.06,8.4.17,16.8.09,25.19,0,1.55,0,2.32.1,2.32,2Q206.12,331.56,206.16,380.07ZM122.33,255.58c-2.07,0-2.89-.3-2.81-2.67,1.08-31.51,11.5-59.61,32-83.77,18.93-22.35,42.85-37.38,71.6-44.21,39-9.27,75.74-3.26,109.12,18.77,31.48,20.78,50.84,50,58.21,86.83a158.88,158.88,0,0,1,2.49,23c.13,2.42-1.26,2-2.63,2h-134Q189.33,255.54,122.33,255.58ZM246.05,390.35c-3.19-.28-6.36-.69-9.55-.94-2-.15-2.57-1-2.55-3,.1-17.15.05-34.31.05-51.47s.05-34.12-.05-51.19c0-2.2.56-2.8,2.81-2.78q21.53.15,43,0c2,0,2.74.36,2.73,2.56q-.11,51.19,0,102.38c0,1.55-.11,2.4-2.11,2.75A134,134,0,0,1,246.05,390.35Z" transform="translate(-39 -39)"/><path class="cls-1" d="M156.76,200.77A37.18,37.18,0,1,1,231.11,202c-.42,19.95-17.74,36.37-37.79,35.82C172.84,237.25,156.33,220.52,156.76,200.77Z" transform="translate(-39 -39)"/><path class="cls-1" d="M356,203.39a37.27,37.27,0,1,1-74.53-1.56c.52-19.15,17.75-35.71,37.6-35.48C339.42,166.58,356.12,183.33,356,203.39Z" transform="translate(-39 -39)"/><path class="cls-1" d="M256.94,246.33a12.88,12.88,0,0,1-12.8-12.82,13,13,0,0,1,26,.06A13,13,0,0,1,256.94,246.33Z" transform="translate(-39 -39)"/></svg>