<svg id="Layer_1" data-name="Layer 1" xmlns="http://www.w3.org/2000/svg" viewBox="0 0 785 378"><defs><style>.cls-1{fill:#101828;}.cls-2{fill:#f4ccb8;}</style></defs><rect class="cls-1" width="785" height="378"/><path class="cls-2" d="M0,366.08v1.34l1.46.88A123.81,123.81,0,0,1,15.8,378h1.88A116.52,116.52,0,0,0,2.37,367.51Z"/><path class="cls-2" d="M22.35,361.86c-4.34-2.61-12-7.13-22.35-13.24V350c9.91,5.84,17.22,10.17,21.43,12.7,7.72,4.65,15.38,9.6,20.13,15.35h1.66C38.4,371.89,30.4,366.71,22.35,361.86Z"/><path class="cls-2" d="M42.32,356.21c-6.77-4.08-21.58-12.81-42.32-25v1.33C20.26,344.45,34.74,353,41.41,357c10.13,6.11,20.16,12.73,23.65,21h1.49C63.07,369.32,52.75,362.5,42.32,356.21Z"/><path class="cls-2" d="M62.3,350.57c-8.78-5.29-31.08-18.4-62.3-36.66v1.33c30.74,18,52.69,30.88,61.38,36.12C73,358.33,84.4,366,86.11,376a14.89,14.89,0,0,1,.2,2h1.43a14,14,0,0,0-.22-2.13C85.76,365.48,74.09,357.67,62.3,350.57Z"/><path class="cls-2" d="M82.27,344.92c-10.55-6.36-40.64-24-82.27-48.33v1.33c41.15,24,70.88,41.48,81.35,47.79,11.58,7,23,14.63,24.73,24.64a18.48,18.48,0,0,1-.43,7.65h1.45a19.24,19.24,0,0,0,.4-7.78C105.73,359.83,94.07,352,82.27,344.92Z"/><path class="cls-2" d="M102.25,339.27c-12.17-7.33-50.36-29.7-102.25-60v1.33c51.43,30,89.23,52.17,101.33,59.46,11.58,7,23,14.62,24.73,24.63.76,4.5-.56,9-2.41,13.3h1.49c1.83-4.29,3.11-8.84,2.33-13.42C125.71,354.19,114,346.38,102.25,339.27Z"/><path class="cls-2" d="M122.22,333.63C108.53,325.38,62,298.12,0,262v1.33c61.51,35.87,107.69,62.9,121.31,71.11,11.57,7,23,14.62,24.72,24.64,1.11,6.54-2.19,13.11-5.09,18.92v0h1.51c2.92-5.83,6.14-12.41,5-19.07C145.68,348.54,134,340.73,122.22,333.63Z"/><path class="cls-2" d="M142.2,328C127.07,318.87,71.82,286.55,0,244.69V246c71.37,41.61,126.23,73.69,141.28,82.76,11.58,7,23,14.63,24.73,24.64,1.11,6.54-2.19,13.12-5.1,18.92q-1.26,2.52-2.75,5.67h1.51c.92-2,1.79-3.74,2.58-5.32,3-5.91,6.33-12.61,5.17-19.39C165.66,342.9,154,335.09,142.2,328Z"/><path class="cls-2" d="M162.17,322.33C145.67,312.39,81.42,274.84,0,227.41v1.32c81,47.18,144.83,84.5,161.26,94.4,11.57,7,23,14.62,24.72,24.64,1.11,6.53-2.18,13.11-5.09,18.91-1.55,3.08-3.36,6.89-5.39,11.32H177c2-4.28,3.72-8,5.22-11,3-5.91,6.32-12.61,5.17-19.39C185.63,337.25,174,329.44,162.17,322.33Z"/><path class="cls-2" d="M182.14,316.69C164.32,306,90.74,263,0,210.12v1.33c90.32,52.6,163.47,95.33,181.23,106,11.58,7,23,14.62,24.73,24.64,1.11,6.54-2.19,13.11-5.1,18.92-2.16,4.31-4.86,10.09-7.94,17h1.5c3-6.72,5.66-12.37,7.78-16.61,3-5.91,6.32-12.61,5.17-19.4C205.61,331.6,193.94,323.8,182.14,316.69Z"/><path class="cls-2" d="M202.12,311C183,299.53,99.76,250.93,0,192.84v1.32C99.35,252,182.15,300.36,201.21,311.83c11.57,7,23,14.63,24.72,24.64,1.11,6.54-2.18,13.12-5.1,18.92-2.73,5.45-6.3,13.23-10.45,22.61h1.5c4.08-9.22,7.6-16.88,10.3-22.26,3-5.91,6.32-12.61,5.17-19.39C225.58,326,213.92,318.15,202.12,311Z"/><path class="cls-2" d="M247.32,330.7c-1.76-10.39-13.43-18.2-25.23-25.3C201.72,293.12,108.45,238.7,0,175.57v1.32C108.06,239.8,200.86,294,221.18,306.19c11.58,7,23,14.62,24.72,24.63,1.12,6.54-2.18,13.12-5.09,18.93-3.27,6.51-7.73,16.34-12.94,28.25h1.5c5.14-11.76,9.55-21.46,12.78-27.9C245.12,344.18,248.47,337.48,247.32,330.7Z"/><path class="cls-2" d="M267.3,325.05c-1.77-10.38-13.43-18.19-25.23-25.3C220.45,286.72,116.79,226.27,0,158.3v1.32c116.42,67.75,219.6,127.93,241.16,140.92,11.57,7,23,14.62,24.72,24.64,1.11,6.54-2.18,13.11-5.1,18.92-3.76,7.51-9.13,19.46-15.39,33.9h1.5c6.19-14.29,11.5-26.1,15.24-33.55C265.09,338.54,268.45,331.84,267.3,325.05Z"/><path class="cls-2" d="M287.27,319.41C285.5,309,273.84,301.21,262,294.1,239.2,280.34,124.75,213.61,0,141v1.33c124.4,72.38,238.35,138.82,261.13,152.54,11.58,7,23,14.63,24.72,24.64,1.12,6.54-2.18,13.12-5.09,18.92-4.25,8.47-10.53,22.58-17.83,39.55h1.49c7.24-16.82,13.47-30.79,17.68-39.2C285.07,332.89,288.43,326.19,287.27,319.41Z"/><path class="cls-2" d="M307.25,313.76c-1.77-10.39-13.44-18.2-25.23-25.3C258,274,132.3,200.72,0,123.76v1.32c132,76.77,257.11,149.71,281.1,164.17,11.58,7,23,14.62,24.73,24.64,1.11,6.54-2.18,13.11-5.1,18.91-4.71,9.4-11.92,25.72-20.26,45.2H282c8.28-19.33,15.43-35.51,20.11-44.84C305,327.25,308.4,320.54,307.25,313.76Z"/><path class="cls-2" d="M327.22,308.11c-1.77-10.38-13.43-18.19-25.23-25.3-25.26-15.22-162.6-95.24-302-176.32v1.33C139.08,188.71,275.87,268.41,301.08,283.6c11.57,7,23,14.63,24.72,24.64,1.12,6.54-2.18,13.12-5.09,18.92C315.55,337.45,307.39,356,298,378h1.49c9.3-21.81,17.4-40.26,22.52-50.49C325,321.6,328.38,314.9,327.22,308.11Z"/><path class="cls-2" d="M347.19,302.47c-1.76-10.39-13.43-18.2-25.22-25.31-26.47-16-176-103-322-187.93v1.32C145.7,175.29,294.64,262,321.05,278c11.58,7,23,14.62,24.73,24.63,1.11,6.54-2.19,13.12-5.09,18.92-5.6,11.16-14.73,32.1-25.08,56.49h1.49c10.3-24.25,19.37-45,24.93-56.14C345,316,348.35,309.25,347.19,302.47Z"/><path class="cls-2" d="M367.17,296.82c-1.77-10.39-13.43-18.2-25.23-25.3C314.26,254.84,152.05,160.38,0,72v1.32c151.79,88.26,313.41,182.38,341,199,11.58,7,23,14.62,24.72,24.64,1.12,6.54-2.18,13.11-5.09,18.92-6,12-16.13,35.35-27.47,62.13h1.49C346,351.36,356,328.17,362,316.22,365,310.31,368.33,303.6,367.17,296.82Z"/><path class="cls-2" d="M387.15,291.18c-1.77-10.39-13.44-18.2-25.23-25.31C333,248.46,157.51,146.28,0,54.71V56c157.27,91.44,332.17,193.26,361,210.63,11.58,7,23,14.63,24.73,24.64,1.11,6.54-2.19,13.12-5.09,18.92-6.44,12.85-17.57,38.66-29.86,67.78h1.49c12.24-29,23.3-54.64,29.71-67.43C384.94,304.66,388.3,298,387.15,291.18Z"/><path class="cls-2" d="M407.12,285.53c-1.77-10.39-13.43-18.2-25.23-25.31C351.77,242.07,162.3,131.79,0,37.45v1.32C162.1,133,350.91,242.9,381,261c11.58,7,23,14.62,24.72,24.64,1.12,6.53-2.18,13.11-5.09,18.91-6.85,13.68-19,42-32.23,73.43h1.49C383,346.73,395.13,318.54,402,304.92,404.91,299,408.27,292.31,407.12,285.53Z"/><path class="cls-2" d="M427.1,279.88c-1.77-10.39-13.44-18.19-25.23-25.3C370.49,235.67,166.34,116.87,0,20.19v1.33c166.17,96.58,369.64,215,401,233.85,11.58,7,23,14.62,24.73,24.64,1.11,6.54-2.19,13.12-5.09,18.92C413.32,313.42,400.11,344.38,386,378h1.49c14.08-33.49,27.22-64.3,34.46-78.72C424.89,293.37,428.25,286.67,427.1,279.88Z"/><path class="cls-2" d="M447.07,274.24c-1.77-10.39-13.43-18.2-25.23-25.31C389.2,229.26,169.52,101.46,0,2.94V4.26C169.4,102.71,388.35,230.1,420.93,249.72c11.58,7,23,14.63,24.73,24.64,1.1,6.54-2.19,13.12-5.1,18.92-7.67,15.3-22,49-37,84.72h1.49c15-35.64,29.19-69.13,36.83-84.37C444.86,287.72,448.22,281,447.07,274.24Z"/><path class="cls-2" d="M467.05,268.59c-1.77-10.39-13.44-18.2-25.23-25.3C409.47,223.8,193.5,98.14,24.64,0H22.36C191.42,98.25,408.48,224.54,440.9,244.08c11.58,7,23,14.62,24.73,24.64,1.11,6.53-2.19,13.11-5.1,18.92-8.07,16.1-23.48,52.54-39.35,90.36h1.5c15.81-37.7,31.16-74,39.2-90C464.84,282.07,468.2,275.37,467.05,268.59Z"/><path class="cls-2" d="M487,262.94c-1.77-10.38-13.43-18.19-25.23-25.3C430.07,218.52,221.65,97.25,54.33,0H52.05c167.55,97.38,377,219.27,408.83,238.43,11.58,7,23,14.62,24.72,24.64,1.11,6.54-2.18,13.11-5.09,18.92-8.47,16.9-25,56.21-41.71,96h1.49c16.62-39.68,33.12-78.83,41.56-95.66C484.81,276.43,488.17,269.73,487,262.94Z"/><path class="cls-2" d="M507,257.3c-1.77-10.39-13.44-18.2-25.23-25.31C450.65,213.25,249.59,96.24,84,0H81.74C247.57,96.39,449.66,214,480.85,232.78c11.58,7,23,14.63,24.73,24.64,1.11,6.54-2.19,13.12-5.1,18.92-8.87,17.7-26.62,60-44.08,101.66h1.49c17.42-41.57,35.09-83.68,43.94-101.31C504.79,270.78,508.15,264.08,507,257.3Z"/><path class="cls-2" d="M527,251.65c-1.77-10.39-13.43-18.2-25.23-25.3C471.24,208,277.33,95.11,113.7,0h-2.28C275.34,95.28,470.24,208.71,500.83,227.14c11.58,7,23,14.62,24.72,24.64,1.11,6.53-2.18,13.11-5.09,18.92-9.15,18.24-27.72,62.59-45.68,105.48-.25.61-.51,1.21-.76,1.82h1.49c.21-.51.42-1,.64-1.52,18-42.88,36.52-87.22,45.65-105.43C524.77,265.13,528.12,258.43,527,251.65Z"/><path class="cls-2" d="M547,246c-1.77-10.38-13.44-18.19-25.23-25.3C491.81,202.68,304.89,93.88,143.39,0h-2.28C302.92,94.06,490.81,203.42,520.8,221.49c11.58,7,23,14.63,24.73,24.64,1.11,6.54-2.19,13.11-5.1,18.92-9.14,18.24-27.72,62.6-45.68,105.49L491.63,378h1.49l3-7.17c18-42.87,36.52-87.21,45.65-105.43C544.74,259.49,548.1,252.79,547,246Z"/><path class="cls-2" d="M566.92,240.36c-1.77-10.39-13.43-18.2-25.23-25.31C512.38,197.4,332.28,92.55,173.08,0h-2.27c159.52,92.74,340.58,198.14,370,215.85,11.57,7,23,14.62,24.72,24.63,1.11,6.54-2.18,13.12-5.09,18.92-9.15,18.25-27.72,62.6-45.68,105.49L509.24,378h1.48l5.37-12.81c18-42.88,36.53-87.22,45.66-105.43C564.71,253.84,568.07,247.14,566.92,240.36Z"/><path class="cls-2" d="M586.89,234.71c-1.76-10.39-13.43-18.2-25.22-25.3C533,192.11,359.49,91.12,202.77,0h-2.28C357.57,91.32,532,192.85,560.75,210.2c11.58,7,23,14.62,24.73,24.64,1.11,6.54-2.19,13.11-5.1,18.92-9.14,18.24-27.72,62.59-45.68,105.48L526.84,378h1.49l7.74-18.46c17.95-42.88,36.52-87.21,45.65-105.43C584.69,248.2,588.05,241.49,586.89,234.71Z"/><path class="cls-2" d="M606.87,229.07c-1.77-10.39-13.43-18.2-25.23-25.31C553.52,186.82,386.56,89.6,232.46,0h-2.28C384.66,89.82,552.53,187.56,580.73,204.55c11.57,7,23,14.63,24.72,24.64,1.11,6.54-2.18,13.12-5.09,18.92-9.15,18.24-27.72,62.6-45.69,105.49L544.45,378h1.49L556,353.9c18-42.88,36.53-87.22,45.66-105.44C604.66,242.55,608,235.85,606.87,229.07Z"/><path class="cls-2" d="M626.84,223.42c-1.76-10.39-13.43-18.2-25.22-25.31C574.08,181.53,413.48,88,262.14,0h-2.28C411.6,88.23,573.09,182.27,600.7,198.91c11.58,7,23,14.62,24.73,24.64,1.11,6.53-2.19,13.11-5.1,18.91-9.14,18.25-27.72,62.6-45.68,105.49-4.21,10.05-8.45,20.19-12.6,30.05h1.49c4.11-9.76,8.31-19.8,12.48-29.75,18-42.88,36.52-87.22,45.65-105.44C624.64,236.9,628,230.2,626.84,223.42Z"/><path class="cls-2" d="M646.82,217.77c-1.77-10.39-13.43-18.19-25.23-25.3C594.65,176.23,440.25,86.31,291.83,0h-2.28c148.84,86.55,304.1,177,331.13,193.26,11.57,7,23,14.62,24.72,24.64,1.12,6.54-2.19,13.11-5.09,18.92-9.15,18.24-27.72,62.59-45.68,105.48-5,12-10.09,24.09-15,35.7h1.49C586,366.48,591,354.49,596,342.6c18-42.88,36.53-87.22,45.66-105.43C644.61,231.26,648,224.56,646.82,217.77Z"/><path class="cls-2" d="M661.62,231.52c3-5.91,6.33-12.61,5.17-19.39-1.76-10.39-13.43-18.2-25.22-25.31C615.21,170.94,466.89,84.55,321.51,0h-2.28c145.82,84.8,295,171.69,321.42,187.62,11.58,7,23,14.62,24.73,24.63,1.11,6.54-2.19,13.12-5.1,18.92-9.14,18.24-27.72,62.59-45.68,105.48-5.84,14-11.74,28.05-17.36,41.35h1.49c5.58-13.22,11.44-27.21,17.24-41.05C633.92,294.08,652.49,249.74,661.62,231.52Z"/><path class="cls-2" d="M681.6,225.88c3-5.92,6.32-12.62,5.17-19.4-1.77-10.39-13.43-18.2-25.23-25.31C635.77,165.65,493.41,82.71,351.19,0h-2.27C491.59,83,634.78,166.39,660.63,182c11.57,7,23,14.62,24.72,24.64,1.11,6.53-2.18,13.11-5.09,18.91-9.15,18.25-27.72,62.6-45.68,105.49-6.68,15.93-13.43,32.07-19.76,47h1.49c6.29-14.84,13-30.86,19.63-46.69C653.9,288.43,672.47,244.09,681.6,225.88Z"/><path class="cls-2" d="M701.57,220.23c3-5.91,6.33-12.61,5.17-19.39-1.76-10.39-13.43-18.2-25.22-25.31C656.33,160.36,519.8,80.81,380.87,0H378.6C518,81.08,655.34,161.1,680.6,176.32c11.58,7,23,14.62,24.73,24.64,1.11,6.54-2.19,13.12-5.1,18.92-9.14,18.24-27.72,62.59-45.68,105.49-7.52,18-15.15,36.18-22.15,52.63h1.49c7-16.37,14.55-34.48,22-52.33C673.87,282.79,692.44,238.45,701.57,220.23Z"/><path class="cls-2" d="M721.55,214.58c3-5.91,6.32-12.61,5.17-19.39C725,184.8,713.29,177,701.49,169.88,676.89,155.06,546.08,78.83,410.56,0h-2.28c136,79.11,267.62,155.81,292.3,170.67,11.57,7,23,14.63,24.72,24.64,1.11,6.54-2.18,13.12-5.09,18.92-9.15,18.25-27.73,62.6-45.69,105.49-8.39,20-16.92,40.42-24.55,58.28h1.49c7.6-17.8,16.08-38,24.43-58C693.85,277.14,712.42,232.8,721.55,214.58Z"/><path class="cls-2" d="M741.52,208.94c3-5.92,6.33-12.62,5.17-19.4-1.76-10.39-13.43-18.2-25.23-25.3C697.45,149.77,572.25,76.79,440.24,0H438c132.5,77.09,258.49,150.51,282.58,165,11.58,7,23,14.62,24.73,24.64,1.11,6.53-2.19,13.11-5.1,18.92-9.15,18.24-27.72,62.59-45.68,105.49-9.29,22.19-18.75,44.77-27,63.92H669c8.19-19.09,17.6-41.55,26.84-63.63C713.82,271.49,732.39,227.16,741.52,208.94Z"/><path class="cls-2" d="M761.5,203.29c3-5.91,6.32-12.61,5.17-19.4-1.77-10.38-13.43-18.19-25.23-25.3C718,144.48,598.31,74.69,469.92,0h-2.27C596.55,75,717,145.22,740.53,159.38c11.57,7,23,14.63,24.72,24.64,1.11,6.54-2.18,13.11-5.1,18.92-9.14,18.24-27.71,62.59-45.68,105.49-10.22,24.41-20.64,49.3-29.41,69.57h1.5c8.74-20.22,19.11-45,29.28-69.28C733.8,265.85,752.37,221.51,761.5,203.29Z"/><path class="cls-2" d="M761.41,152.94C738.59,139.19,624.26,72.53,499.6,0h-2.28C622.52,72.84,737.59,139.93,760.5,153.74c11.16,6.72,22.19,14.07,24.5,23.56v-4C781,165.3,771.26,158.88,761.41,152.94Z"/><path class="cls-2" d="M734.45,302.78c-11.19,26.73-22.63,54-31.86,75.22h1.49c9.22-21.15,20.6-48.32,31.74-74.92,17.95-42.88,36.52-87.22,45.65-105.43,1.22-2.45,2.52-5,3.53-7.69V185.1c-.88,4.25-3,8.39-4.87,12.19C771,215.54,752.41,259.89,734.45,302.78Z"/><path class="cls-2" d="M529.28,0H527C648.39,70.63,758.16,134.64,780.48,148.09c1.51.91,3,1.84,4.52,2.78v-1.36c-1.2-.75-2.4-1.48-3.61-2.21C759.15,133.9,650.12,70.32,529.28,0Z"/><path class="cls-2" d="M720.08,378h1.51c9.6-21.82,22-51.53,34.2-80.57,10.15-24.22,20.49-48.91,29.21-69.1v-3.45c-9,20.74-19.9,46.75-30.58,72.25C742.21,326.31,729.71,356.16,720.08,378Z"/><path class="cls-2" d="M556.68,0C656.27,58,746.57,110.6,785,133.27v-1.33C746.24,109.09,657.22,57.19,559,0Z"/><path class="cls-2" d="M737.56,378h1.5c9.88-22.16,23.46-54.58,36.71-86.21,3.07-7.35,6.17-14.74,9.23-22V266.2c-3.51,8.35-7.07,16.85-10.6,25.29C761.09,323.27,747.45,355.85,737.56,378Z"/><path class="cls-2" d="M756.49,378c7.53-16.57,17.77-40.67,28.51-66.24V308.2c-11.31,26.94-22.16,52.54-30,69.8Z"/><path class="cls-2" d="M586.36,0C667.66,47.32,741.74,90.51,785,115.88v-1.33C741.86,89.25,668.82,46.67,588.63,0Z"/><path class="cls-2" d="M773.87,378c3.16-6.76,6.93-15.26,11.13-24.93v-3.45c-4.81,11.12-9.12,20.86-12.63,28.38Z"/><path class="cls-2" d="M616,0c66.13,38.5,126.79,73.85,169,98.53V97.2C743.16,72.72,683.44,37.91,618.31,0Z"/><path class="cls-2" d="M645.71,0C698.32,30.63,747,59,785,81.2V79.88C747.45,57.94,699.65,30.08,648,0Z"/><path class="cls-2" d="M675.38,0C715.53,23.38,753.1,45.27,785,63.89V62.57C753.65,44.27,716.91,22.86,677.65,0Z"/><path class="cls-2" d="M705.05,0c28.49,16.59,55.52,32.34,80,46.59V45.27C761.2,31.38,735,16.09,707.32,0Z"/><path class="cls-2" d="M734.72,0C752.19,10.17,769,20,785,29.3V28L737,0Z"/><path class="cls-2" d="M766.66,0h-2.27L785,12V10.68Z"/></svg>